<?xml version="1.0" encoding="utf-8"?>
<!-- Generator: Adobe Illustrator 27.0.0, SVG Export Plug-In . SVG Version: 6.00 Build 0)  -->
<svg version="1.1" id="Ebene_1" xmlns="http://www.w3.org/2000/svg" x="0px" y="0px"
	 viewBox="0 0 141.75 30" style="enable-background:new 0 0 141.75 30;" xml:space="preserve">
<style type="text/css">
	.st0{fill:#FFFFFF;}
	.st1{fill:#324057;}
</style>
	<g>
	<path class="st0"
		  d="M6,0h129.75c3.32,0,6,2.68,6,6v18c0,3.32-2.68,6-6,6H6c-3.32,0-6-2.68-6-6V6C0,2.68,2.68,0,6,0L6,0z M6,0"/>
		<path class="st1" d="M46.35,16.58h-3.14v2.91h3.5v0.88h-4.55v-8.08h4.37v0.88h-3.32v2.55h3.14V16.58z"/>
		<path class="st1" d="M50.48,16.73v0.78h-2.96v-0.78H50.48z"/>
		<path class="st1" d="M58.57,16.82c-0.06-1.13-0.13-2.48-0.12-3.49h-0.04c-0.28,0.95-0.61,1.96-1.02,3.07l-1.43,3.92h-0.79
		l-1.31-3.85c-0.38-1.14-0.71-2.18-0.94-3.14h-0.02c-0.02,1.01-0.08,2.36-0.16,3.57l-0.22,3.47h-1l0.56-8.08h1.33l1.38,3.91
		c0.34,1,0.61,1.88,0.82,2.72h0.04c0.2-0.82,0.49-1.7,0.85-2.72l1.44-3.91h1.33l0.5,8.08h-1.02L58.57,16.82z"/>
		<path class="st1" d="M64.65,20.37l-0.08-0.73h-0.04c-0.32,0.46-0.95,0.86-1.77,0.86c-1.18,0-1.77-0.83-1.77-1.67
		c0-1.4,1.25-2.17,3.49-2.16v-0.12c0-0.48-0.13-1.34-1.32-1.34c-0.54,0-1.1,0.17-1.51,0.43l-0.24-0.7c0.48-0.31,1.18-0.52,1.91-0.52
		c1.77,0,2.21,1.21,2.21,2.38v2.17c0,0.5,0.02,1,0.1,1.39H64.65z M64.5,17.41c-1.15-0.02-2.46,0.18-2.46,1.31
		c0,0.68,0.46,1.01,1,1.01c0.76,0,1.24-0.48,1.4-0.97c0.04-0.11,0.06-0.23,0.06-0.34V17.41z"/>
		<path class="st1" d="M68.4,12.93c0.01,0.36-0.25,0.65-0.67,0.65c-0.37,0-0.64-0.29-0.64-0.65c0-0.37,0.28-0.66,0.66-0.66
		C68.15,12.27,68.4,12.56,68.4,12.93z M67.22,20.37v-5.8h1.06v5.8H67.22z"/>
		<path class="st1" d="M70.03,11.85h1.06v8.52h-1.06V11.85z"/>
		<path class="st1" d="M75.26,19.29c0.31,0.2,0.86,0.42,1.39,0.42c0.77,0,1.13-0.38,1.13-0.86c0-0.5-0.3-0.78-1.08-1.07
		c-1.04-0.37-1.54-0.95-1.54-1.64c0-0.94,0.76-1.7,2-1.7c0.59,0,1.1,0.17,1.43,0.36l-0.26,0.77c-0.23-0.14-0.65-0.33-1.19-0.33
		c-0.62,0-0.97,0.36-0.97,0.79c0,0.48,0.35,0.7,1.1,0.98c1.01,0.38,1.52,0.89,1.52,1.75c0,1.02-0.79,1.74-2.17,1.74
		c-0.64,0-1.22-0.16-1.63-0.4L75.26,19.29z"/>
		<path class="st1" d="M84.3,20.15c-0.28,0.14-0.89,0.34-1.67,0.34c-1.75,0-2.89-1.19-2.89-2.96c0-1.79,1.22-3.08,3.12-3.08
		c0.62,0,1.17,0.16,1.46,0.3l-0.24,0.82c-0.25-0.14-0.65-0.28-1.22-0.28c-1.33,0-2.05,0.98-2.05,2.19c0,1.34,0.86,2.17,2.01,2.17
		c0.6,0,1-0.16,1.29-0.29L84.3,20.15z"/>
		<path class="st1" d="M85.54,11.85h1.05v3.62h0.02c0.17-0.3,0.43-0.56,0.76-0.74c0.31-0.18,0.68-0.3,1.08-0.3
		c0.78,0,2.03,0.48,2.03,2.48v3.45h-1.05v-3.33c0-0.94-0.35-1.73-1.34-1.73c-0.68,0-1.22,0.48-1.42,1.05
		c-0.06,0.14-0.07,0.3-0.07,0.5v3.5h-1.05V11.85z"/>
		<path class="st1" d="M92.2,16.38c0-0.68-0.01-1.27-0.05-1.81h0.92l0.04,1.14h0.05c0.26-0.78,0.9-1.27,1.61-1.27
		c0.12,0,0.2,0.01,0.3,0.04v1c-0.11-0.02-0.22-0.04-0.36-0.04c-0.74,0-1.27,0.56-1.42,1.36c-0.02,0.14-0.05,0.31-0.05,0.49v3.09
		H92.2V16.38z"/>
		<path class="st1" d="M96.59,17.66c0.02,1.43,0.94,2.01,1.99,2.01c0.76,0,1.21-0.13,1.61-0.3l0.18,0.75
		c-0.37,0.17-1.01,0.36-1.93,0.36c-1.79,0-2.85-1.18-2.85-2.93s1.03-3.13,2.72-3.13c1.89,0,2.4,1.67,2.4,2.73
		c0,0.22-0.02,0.38-0.04,0.49H96.59z M99.68,16.9c0.01-0.67-0.28-1.71-1.46-1.71c-1.07,0-1.54,0.98-1.62,1.71H99.68z"/>
		<path class="st1" d="M103.19,12.93c0.01,0.36-0.25,0.65-0.67,0.65c-0.37,0-0.64-0.29-0.64-0.65c0-0.37,0.28-0.66,0.66-0.66
		C102.94,12.27,103.19,12.56,103.19,12.93z M102.01,20.37v-5.8h1.05v5.8H102.01z"/>
		<path class="st1" d="M104.77,20.37c0.02-0.4,0.05-0.98,0.05-1.5v-7.02h1.04v3.65h0.02c0.37-0.65,1.04-1.07,1.98-1.07
		c1.44,0,2.46,1.2,2.45,2.96c0,2.08-1.31,3.11-2.6,3.11c-0.84,0-1.51-0.32-1.94-1.09h-0.04l-0.05,0.96H104.77z M105.86,18.04
		c0,0.13,0.02,0.26,0.05,0.38c0.2,0.73,0.82,1.23,1.58,1.23c1.1,0,1.76-0.9,1.76-2.23c0-1.16-0.6-2.16-1.73-2.16
		c-0.72,0-1.39,0.49-1.61,1.29c-0.02,0.12-0.06,0.26-0.06,0.43V18.04z"/>
		<path class="st1" d="M112.24,17.66c0.02,1.43,0.94,2.01,1.99,2.01c0.76,0,1.21-0.13,1.61-0.3l0.18,0.75
		c-0.37,0.17-1.01,0.36-1.93,0.36c-1.79,0-2.85-1.18-2.85-2.93s1.03-3.13,2.72-3.13c1.89,0,2.4,1.67,2.4,2.73
		c0,0.22-0.02,0.38-0.04,0.49H112.24z M115.33,16.9c0.01-0.67-0.28-1.71-1.46-1.71c-1.07,0-1.54,0.98-1.62,1.71H115.33z"/>
		<path class="st1" d="M117.66,16.13c0-0.6-0.01-1.09-0.05-1.57h0.94l0.06,0.96h0.02c0.29-0.55,0.96-1.09,1.92-1.09
		c0.8,0,2.05,0.48,2.05,2.47v3.47h-1.05v-3.35c0-0.94-0.35-1.71-1.34-1.71c-0.7,0-1.24,0.49-1.42,1.08
		c-0.05,0.13-0.07,0.31-0.07,0.49v3.49h-1.05V16.13z"/>
		<path class="st1" d="M13.54,6.94c-1.13,0-2.05,0.92-2.05,2.05c0,0.65,0.3,1.25,0.82,1.64l9.3,6.98c0.49,0.36,1.15,0.36,1.64,0
		l9.3-6.98c0.52-0.39,0.82-1,0.82-1.64c0-1.13-0.92-2.05-2.05-2.05C31.33,6.94,13.54,6.94,13.54,6.94z M11.49,11.73v8.89
		c0,1.51,1.23,2.74,2.74,2.74h16.42c1.51,0,2.74-1.23,2.74-2.74v-8.89l-9.3,6.98c-0.97,0.73-2.31,0.73-3.28,0L11.49,11.73z"/>
</g>
</svg>
