<?xml version="1.0" encoding="utf-8"?>
<!-- Generator: Adobe Illustrator 27.0.0, SVG Export Plug-In . SVG Version: 6.00 Build 0)  -->
<svg version="1.1" id="Ebene_1" xmlns="http://www.w3.org/2000/svg" xmlns:xlink="http://www.w3.org/1999/xlink" x="0px" y="0px"
	 viewBox="0 0 426.76 448.33" style="enable-background:new 0 0 426.76 448.33;" xml:space="preserve">
<style type="text/css">
	.st0{fill:#FFFFFF;}
</style>
<g>
	<path class="st0" d="M245.36,138.53c4.83-3.52,8.82-6.58,12.98-9.38c2.82-1.9,5.8-3.63,8.88-5.08
		c18.56-8.77,33.82-1.44,39.39,19.36c-5.96,0.95-11.85,2.01-17.78,2.81c-10.85,1.45-19.63,6.35-26.1,15.32
		c-5.05,6.99-10.12,13.97-15.7,21.67c1.97,0.23,3.31,0.47,4.66,0.53c9.18,0.39,18.39,0.48,27.55,1.23
		c3.98,0.32,8.21,1.28,11.74,3.11c33.28,17.27,50.86,45.5,55.43,82.37c3.25,26.24,1.16,51.96-9.71,76.37
		c-10.65,23.92-27.09,41.93-52.62,50.03c-14.36,4.56-28.87,3.98-43.54,1.39c-19.42-3.43-38.43-0.67-56.91,5.57
		c-4.16,1.4-7.92,4.53-11.39,7.44c-11.64,9.73-23.04,19.75-34.62,29.56c-1.02,0.86-2.65,1.28-4.03,1.37
		c-31.95,2.13-63.91,4.23-95.88,6.14c-1.66,0.1-3.97-1.04-5.06-2.37c-8.38-10.27-16.61-20.67-24.75-31.14
		c-10.23-13.16-10.41-21.89-1.2-35.84c22.66-34.32,45.4-68.57,67.82-103.05c8.52-13.1,15.79-27.05,24.47-40.03
		c5.77-8.62,12.51-16.74,19.72-24.19c25.35-26.18,56.5-34.06,91.69-28.29c1.75,0.29,3.53,0.55,5.29,0.54
		c8.08-0.06,12.82-5.1,12.01-13.2c-0.37-3.67-1.64-7.25-2.51-10.86c-2.09-8.68-5.01-17.26-5.98-26.06
		c-0.66-5.97,0.1-12.82,2.47-18.29c15.46-35.7,31.47-71.16,47.47-106.62c3.69-8.18,12.57-11.08,20.18-7.21
		c7.7,3.92,10.66,12.57,6.47,20.6c-9.37,17.98-19.21,35.71-28.53,53.71c-9.29,17.93-16.66,36.63-20.81,56.51
		C246.08,134.24,245.81,135.99,245.36,138.53z M210.36,344.88c1.71,1.85,3.06,3.4,4.5,4.87c7.17,7.33,13.73,15.46,21.69,21.8
		c16.9,13.49,35.46,15.72,54.72,4.85c9.36-5.28,16.76-12.88,22.51-21.92c17.75-27.9,21.68-58.34,15.25-90.35
		c-4.03-20.06-13.38-37.36-29.09-50.62c-20.85-17.6-46.56-17.05-66.53,1.52c-5.28,4.91-10.07,10.66-13.95,16.75
		c-21.29,33.44-42.32,67.06-63.25,100.73c-14.15,22.77-28,45.73-42.09,68.77c6.93,8.41,13.78,16.72,20.8,25.24
		C160.2,399.19,185.05,372.28,210.36,344.88z M149.26,314.61c-0.73-0.2-1.12-0.4-1.52-0.41c-22.37-0.62-44.74-1.03-67.1-1.92
		c-8.11-0.32-13.43,3.09-17.61,9.69c-13.94,22.03-28.02,43.96-42.03,65.93c-0.59,0.93-1.01,1.98-1.6,3.15
		c24.72,0,49.01,0.21,73.3-0.14c6.43-0.09,11.81-3.53,15.39-9.32c13.32-21.53,26.69-43.03,40.03-64.55
		C148.56,316.33,148.84,315.52,149.26,314.61z M222.32,202.46c-18.44-1.93-36.5-4.59-54.76-2.99c-9.77,0.86-18.76,4.18-26.48,10.5
		c-14.19,11.61-22.29,27.53-30.87,43.75c17.94,3.23,35.39,5.38,53.05,3.64C194.28,254.32,216.92,233.33,222.32,202.46z
		 M77.82,299.78c14.32,0.89,27.48,1.72,41.49,2.59c-6.82-11.7-13.09-22.47-19.65-33.73C92.35,279.07,85.38,289,77.82,299.78z
		 M20.38,410.45c-0.29,0.32-0.57,0.65-0.86,0.97c5.72,7.03,11.54,13.99,17.12,21.15c1.77,2.27,3.61,2.97,6.42,2.79
		c17.75-1.15,35.51-2.08,53.27-3.17c7.42-0.45,14.83-1.11,22.24-1.67c-0.85-1.07-1.75-1.48-2.68-1.7
		c-23.03-5.4-46.18-4.77-69.33-1.12c-3.88,0.61-6.51-0.06-9.4-2.82C31.84,419.78,26,415.23,20.38,410.45z"/>
	<path class="st0" d="M293.05,181.47c-4.06,1.08-8.27-1-12.22-3.84c-4.35-3.12-6.32-8.78-3.93-13.49
		c3.24-6.36,8.29-11.28,15.75-11.52c19.97-0.65,35.94-9.16,47.34-25.26c14.55-20.54,28.22-41.72,42.16-62.69
		c6.52-9.8,12.79-19.78,19.18-29.67c4.84-7.49,10.29-9.66,16.61-6.61c6.82,3.29,10.42,11.51,8.12,18.91
		c-0.57,1.83-1.47,3.6-2.49,5.22c-15.89,25.22-31.7,50.5-47.82,75.57c-9.17,14.26-20.12,26.99-33.99,36.93
		C327.48,175.26,311.59,180.7,293.05,181.47z"/>
	<path class="st0" d="M4.24,88.59c11.29,19.03,22.07,37.21,32.85,55.38c10.71,18.06,21.41,36.14,32.16,54.17
		c1.75,2.93,2.45,5.67-1.13,7.54c-3.22,1.68-5.72,0.47-7.32-2.71c-18.86-37.53-37.71-75.06-56.55-112.6
		C4.14,90.16,4.24,89.83,4.24,88.59z"/>
	<path class="st0" d="M80.05,66.56c2.18,26.47,4.36,52.93,6.54,79.4c1.03,12.5,2.05,24.99,3.07,37.49c0.34,4.14-1.3,6.62-4.64,6.67
		c-3.77,0.06-5.1-2.19-5.11-5.77C79.78,145.67,79.6,107,79.44,68.32c0-0.58,0.11-1.17,0.17-1.75
		C79.76,66.57,79.91,66.57,80.05,66.56z"/>
	<path class="st0" d="M137.89,73.31c-9.49,37.26-18.97,74.52-28.47,111.78c-0.97,3.81-3.6,5.48-6.84,4.4
		c-3.42-1.13-3.39-3.59-2.42-6.48c12.15-36.01,24.27-72.02,36.41-108.03c0.23-0.69,0.65-1.32,0.98-1.98
		C137.66,73.11,137.77,73.21,137.89,73.31z"/>
	<path class="st0" d="M316.71,314.54c0.42,13.13-8.07,30.29-27.56,41.06c-15.57,8.6-32.06,6.63-44.62-5.97
		c-24.66-24.71-37.84-71.34-4.98-108.45c6.78-7.66,15.1-13.02,25.22-14.93c15.28-2.88,28.31,3.32,36.26,17.41
		C311.84,262.82,315.87,283.76,316.71,314.54z M309.43,305.66c-0.03-19.06-3.74-37.12-13.54-53.6
		c-12.62-21.21-36.95-22.87-52.45-3.48c-11.11,13.9-15.02,30.21-14.62,47.74c0.4,17.65,5.36,33.56,18.41,46.05
		c9.83,9.4,21.43,13.89,34.58,8.87c13.86-5.28,24.08-14.62,26.32-30.43C308.84,315.8,309.01,310.71,309.43,305.66z"/>
</g>
</svg>
